<?xml version="1.0" encoding="UTF-8" standalone="no"?>
<!-- Created with Inkscape (http://www.inkscape.org/) -->

<svg
   xmlns:dc="http://purl.org/dc/elements/1.1/"
   xmlns:cc="http://creativecommons.org/ns#"
   xmlns:rdf="http://www.w3.org/1999/02/22-rdf-syntax-ns#"
   xmlns:svg="http://www.w3.org/2000/svg"
   xmlns="http://www.w3.org/2000/svg"
   xmlns:sodipodi="http://sodipodi.sourceforge.net/DTD/sodipodi-0.dtd"
   xmlns:inkscape="http://www.inkscape.org/namespaces/inkscape"
   width="210mm"
   height="297mm"
   viewBox="0 0 210 297"
   version="1.1"
   id="svg8"
   sodipodi:docname="balanza2.svg"
   inkscape:version="0.92.2 (5c3e80d, 2017-08-06)"
   inkscape:export-filename="C:\Users\sboga\OneDrive\Documentos\NEXTU\balanza.png"
   inkscape:export-xdpi="96"
   inkscape:export-ydpi="96">
  <defs
     id="defs2">
    <inkscape:path-effect
       effect="spiro"
       id="path-effect1166"
       is_visible="true" />
    <inkscape:path-effect
       effect="spiro"
       id="path-effect1162"
       is_visible="true" />
    <inkscape:path-effect
       effect="spiro"
       id="path-effect1051"
       is_visible="true" />
    <inkscape:path-effect
       effect="spiro"
       id="path-effect1018"
       is_visible="true" />
    <inkscape:path-effect
       effect="spiro"
       id="path-effect1014"
       is_visible="true" />
    <inkscape:path-effect
       effect="spiro"
       id="path-effect1000"
       is_visible="true" />
    <inkscape:path-effect
       effect="spiro"
       id="path-effect996"
       is_visible="true" />
    <inkscape:path-effect
       effect="spiro"
       id="path-effect1162-1"
       is_visible="true" />
    <inkscape:path-effect
       effect="spiro"
       id="path-effect1162-6"
       is_visible="true" />
    <inkscape:path-effect
       effect="spiro"
       id="path-effect1162-7"
       is_visible="true" />
  </defs>
  <sodipodi:namedview
     id="base"
     pagecolor="#ffffff"
     bordercolor="#666666"
     borderopacity="1.0"
     inkscape:pageopacity="0.0"
     inkscape:pageshadow="2"
     inkscape:zoom="0.15909903"
     inkscape:cx="-310.11984"
     inkscape:cy="1118.7596"
     inkscape:document-units="mm"
     inkscape:current-layer="layer1"
     showgrid="false"
     inkscape:window-width="1366"
     inkscape:window-height="705"
     inkscape:window-x="-8"
     inkscape:window-y="-8"
     inkscape:window-maximized="1" />
  <metadata
     id="metadata5">
    <rdf:RDF>
      <cc:Work
         rdf:about="">
        <dc:format>image/svg+xml</dc:format>
        <dc:type
           rdf:resource="http://purl.org/dc/dcmitype/StillImage" />
        <dc:title></dc:title>
      </cc:Work>
    </rdf:RDF>
  </metadata>
  <g
     inkscape:label="Capa 1"
     inkscape:groupmode="layer"
     id="layer1">
    <g
       id="g1448"
       transform="matrix(5.0304575,0,0,5.5408956,-136.72844,-810.81036)"
       inkscape:export-filename="C:\Users\sboga\OneDrive\Documentos\NEXTU\EVALUACION HTML\balanza1.png"
       inkscape:export-xdpi="96"
       inkscape:export-ydpi="96">
      <g
         transform="matrix(0.36956899,0,0,0.36971031,18.390812,91.572483)"
         id="g1666">
        <g
           id="g922"
           transform="matrix(0.30588564,0,0,0.31491998,53.372301,162.16247)">
          <path
             sodipodi:nodetypes="ccccc"
             inkscape:connector-curvature="0"
             id="path815"
             d="m 40.230756,108.33162 c -7.976788,-6.2427 40.577574,32.60078 39.537123,42.65847 10.057689,-27.74535 52.716161,-69.363364 52.716161,-69.363364 0,0 -21.50264,9.364061 -53.756613,47.860724 2.659797,0.86244 -15.606757,-17.34084 -38.496671,-21.15583 z"
             style="fill:#00ff00;stroke:#000000;stroke-width:0.26458332px;stroke-linecap:butt;stroke-linejoin:miter;stroke-opacity:1" />
          <path
             transform="matrix(0.75074285,0.09670858,-0.20229347,0.35890073,50.297916,88.234372)"
             inkscape:transform-center-y="-1.8475788"
             inkscape:transform-center-x="-0.35467214"
             d="m 71.040991,188.82959 c -2.212951,-2.11673 4.668029,-15.38855 5.394699,-18.36339 0.72667,-2.97484 0.739383,-17.92438 3.679004,-18.78248 2.93962,-0.85811 10.992863,11.7369 13.205814,13.85364 2.21295,2.11673 15.153282,9.60251 14.426612,12.57735 -0.72667,2.97484 -15.660895,3.65165 -18.600516,4.50975 -2.939621,0.85811 -15.892663,8.32187 -18.105613,6.20513 z"
             inkscape:randomized="0"
             inkscape:rounded="0.16"
             inkscape:flatsided="false"
             sodipodi:arg2="3.3811732"
             sodipodi:arg1="2.3339756"
             sodipodi:r2="10.155304"
             sodipodi:r1="22.076748"
             sodipodi:cy="172.87601"
             sodipodi:cx="86.300934"
             sodipodi:sides="3"
             id="path817"
             style="fill:#000080;fill-opacity:1;fill-rule:evenodd;stroke:#220000;stroke-width:2.06500006;stroke-linecap:round;stroke-linejoin:miter;stroke-miterlimit:4;stroke-dasharray:none;stroke-dashoffset:12.00755882;stroke-opacity:1"
             sodipodi:type="star" />
          <path
             transform="matrix(0.61131425,0.66550713,-0.36964164,1.2206769,182.91345,-32.292792)"
             inkscape:transform-center-y="-9.0754278"
             inkscape:transform-center-x="1.4336918"
             d="m -19.421745,144.40058 c 2.43886,1.42968 2.724798,-41.78232 0.267232,-40.38504 -2.457566,1.39727 34.822151,23.2509 34.840857,20.42395 0.01871,-2.82695 -37.546949,18.53141 -35.108089,19.96109 z"
             inkscape:randomized="0"
             inkscape:rounded="-0.07"
             inkscape:flatsided="true"
             sodipodi:arg2="3.1482097"
             sodipodi:arg1="2.1010121"
             sodipodi:r2="11.658413"
             sodipodi:r1="23.316826"
             sodipodi:cy="124.2852"
             sodipodi:cx="-7.629971"
             sodipodi:sides="3"
             id="path819"
             style="fill:#ffffff;fill-opacity:1;fill-rule:evenodd;stroke:#220000;stroke-width:0.82664603;stroke-linecap:round;stroke-linejoin:miter;stroke-miterlimit:4;stroke-dasharray:none;stroke-dashoffset:12.00755882;stroke-opacity:1"
             sodipodi:type="star" />
          <path
             transform="matrix(0.59292864,0.68193875,-0.40280956,1.210137,93.262079,-4.628026)"
             inkscape:transform-center-y="-9.2969329"
             inkscape:transform-center-x="1.8354503"
             d="m -19.421745,144.40058 c 2.43886,1.42968 2.724798,-41.78232 0.267232,-40.38504 -2.457566,1.39727 34.822151,23.2509 34.840857,20.42395 0.01871,-2.82695 -37.546949,18.53141 -35.108089,19.96109 z"
             inkscape:randomized="0"
             inkscape:rounded="-0.07"
             inkscape:flatsided="true"
             sodipodi:arg2="3.1482097"
             sodipodi:arg1="2.1010121"
             sodipodi:r2="11.658413"
             sodipodi:r1="23.316826"
             sodipodi:cy="124.2852"
             sodipodi:cx="-7.629971"
             sodipodi:sides="3"
             id="path819-5"
             style="fill:#ffffff;fill-opacity:1;fill-rule:evenodd;stroke:#220000;stroke-width:0.82664603;stroke-linecap:round;stroke-linejoin:miter;stroke-miterlimit:4;stroke-dasharray:none;stroke-dashoffset:12.00755882;stroke-opacity:1"
             sodipodi:type="star" />
          <path
             sodipodi:nodetypes="ccc"
             inkscape:connector-curvature="0"
             id="path869"
             d="m 52.707385,157.22717 c -15.657167,30.15596 -29.936638,0.24874 -29.936638,0.24874 z"
             style="fill:#552200;fill-opacity:1;stroke:#000000;stroke-width:0.15340582px;stroke-linecap:butt;stroke-linejoin:miter;stroke-opacity:1" />
          <path
             sodipodi:nodetypes="ccc"
             inkscape:connector-curvature="0"
             id="path869-6"
             d="m 147.30936,130.51136 c -15.65717,30.15596 -29.93664,0.24874 -29.93664,0.24874 z"
             style="fill:#552200;fill-opacity:1;stroke:#000000;stroke-width:0.15340582px;stroke-linecap:butt;stroke-linejoin:miter;stroke-opacity:1" />
        </g>
        <g
           transform="matrix(1.1192136,0,0,1.1315582,207.68461,-34.492146)"
           id="g1609">
          <path
             style="fill:#ff0000;fill-opacity:1;fill-rule:evenodd;stroke:#04243f;stroke-width:0.36523819;stroke-linecap:round;stroke-linejoin:miter;stroke-miterlimit:4;stroke-dasharray:none;stroke-dashoffset:12.00755882;stroke-opacity:1"
             d="m -154.04327,217.35863 2.10284,-0.63713 c -0.0245,0.0246 -0.0492,0.0492 -0.0738,0.0739 -18.48363,19.68813 -0.0333,21.91406 34.6279,12.21386 -29.08808,8.09014 -40.09711,1.44454 -24.53555,-15.13126 0.0925,-0.0922 0.18466,-0.18422 0.27687,-0.27631 l 3.02104,-0.91568 1.88424,-8.12937 z"
             id="path1418-7"
             inkscape:connector-curvature="0" />
          <path
             style="fill:#ffff00;fill-opacity:1;fill-rule:evenodd;stroke:#04243f;stroke-width:0.36523819;stroke-linecap:round;stroke-linejoin:miter;stroke-miterlimit:4;stroke-dasharray:none;stroke-dashoffset:12.00755882;stroke-opacity:1"
             d="m -124.97855,168.64728 0.63713,2.10285 c -0.0246,-0.0245 -0.0492,-0.0492 -0.0739,-0.0738 -19.68813,-18.48363 -21.91406,-0.0333 -12.21386,34.6279 -8.09014,-29.08809 -1.44454,-40.09712 15.13126,-24.53556 0.0922,0.0925 0.18422,0.18466 0.27631,0.27687 l 0.91568,3.02105 8.12937,1.88424 z"
             id="path1418-7-1"
             inkscape:connector-curvature="0" />
          <path
             style="fill:#008000;fill-opacity:1;fill-rule:evenodd;stroke:#04243f;stroke-width:0.36523819;stroke-linecap:round;stroke-linejoin:miter;stroke-miterlimit:4;stroke-dasharray:none;stroke-dashoffset:12.00755882;stroke-opacity:1"
             d="m -103.932,246.19517 -0.63713,-2.10285 c 0.0246,0.0245 0.0492,0.0492 0.0739,0.0738 19.688153,18.48363 21.914083,0.0333 12.213883,-34.6279 8.09014,29.08809 1.44454,40.09712 -15.131313,24.53556 -0.0922,-0.0925 -0.18422,-0.18466 -0.27631,-0.27687 l -0.91568,-3.02105 -8.12937,-1.88424 z"
             id="path1418-7-1-5"
             inkscape:connector-curvature="0" />
          <path
             style="fill:#0000ff;fill-opacity:1;fill-rule:evenodd;stroke:#04243f;stroke-width:0.36523819;stroke-linecap:round;stroke-linejoin:miter;stroke-miterlimit:4;stroke-dasharray:none;stroke-dashoffset:12.00755882;stroke-opacity:1"
             d="m -75.51962,198.13063 -2.10285,0.63713 c 0.0245,-0.0246 0.0492,-0.0492 0.0738,-0.0739 18.48363,-19.68813 0.0333,-21.91406 -34.62789,-12.21386 29.08808,-8.09014 40.09711,-1.44454 24.53555,15.13127 -0.0925,0.0922 -0.18466,0.18422 -0.27687,0.27631 l -3.02105,0.91568 -1.88424,8.12938 z"
             id="path1418-7-1-5-4"
             inkscape:connector-curvature="0" />
        </g>
      </g>
      <text
         transform="scale(1.4026074,0.71295788)"
         id="text1420"
         y="270.22791"
         x="19.815186"
         style="font-style:normal;font-weight:normal;font-size:13.73084736px;line-height:1.25;font-family:sans-serif;letter-spacing:0px;word-spacing:0px;fill:#000000;fill-opacity:1;stroke:none;stroke-width:0.3432712"
         xml:space="preserve"><tspan
           dx="-0.511365"
           rotate="7.5999999 7.5999999 7.5999999 0"
           style="font-style:normal;font-variant:normal;font-weight:bold;font-stretch:normal;font-family:sans-serif;-inkscape-font-specification:'sans-serif Bold';letter-spacing:-1.25996876px;word-spacing:0.00634213px;stroke-width:0.3432712"
           y="270.22791"
           x="19.815186"
           id="tspan1418"
           sodipodi:role="line">SDB</tspan></text>
    </g>
  </g>
  <g
     inkscape:groupmode="layer"
     id="layer2"
     inkscape:label="Capa 2" />
</svg>
